:SAMPLES-PER-SECOND 30
:FULLY-SPECIFIED
:DEGREES
223
root  -43.6813 40.0316 0.818179 -139.92 -83.2733 133.32
RightUpLeg  -16.0585 -4.1127 -9.89809
RightLeg  61.9119 -3.83317 -8.27297
RightFoot  2.75149 -0.442224 3.72104
RightToes  -1.33073e-015 0 -3.6325e-017
Spine  19.9707 0.676678 -3.63305
Spine1  9.02549 0.408087 -1.11585
HEad  -3.38494 6.04865 -1.54136
LeftShoulder1  9.61564 -13.6619 -48.9051
LeftArm  -9.9009 19.6544 -25.1967
LeftForeArm  39.1838 -31.3488 -4.69628
LeftHand  -0.244104 0.0205437 5.32207
RightShoulder  6.24194 10.0206 40.0139
RightArm  -3.6672 -4.99043 35.3812
RightForeArm  11.3466 7.61125 7.96286
RightHand  -2.09888 6.10643 -21.2624
LeftUpLeg  -6.44127 16.5527 -7.41934
LeftLeg  19.796 5.11909 2.17149
LeftFoot  -8.01546 -0.0358686 2.90432
LeftToes  -7.82198e-011 2.46994e-011 -7.94165e-012
224
root  -44.7456 40.2983 0.92652 -139.824 -83.9019 132.704
RightUpLeg  -18.5702 -6.30147 -8.7277
RightLeg  55.9287 -5.20969 -8.6622
RightFoot  1.68306 -0.360787 3.2769
RightToes  -1.33073e-015 0 -3.6325e-017
Spine  19.7988 0.175579 -3.38083
Spine1  8.41721 -0.212357 -0.765404
HEad  -1.59148 6.37996 -1.14128
LeftShoulder1  9.2659 -13.2568 -48.2614
LeftArm  -11.4006 17.8885 -25.613
LeftForeArm  42.6499 -37.9577 -6.15049
LeftHand  -0.244104 0.0205437 5.32207
RightShoulder  6.04941 9.73251 39.5871
RightArm  -3.44265 -9.07746 35.0589
RightForeArm  15.5119 7.30364 7.6342
RightHand  -1.81513 5.1279 -20.1248
LeftUpLeg  -2.27189 15.0145 -6.10184
LeftLeg  16.7509 6.26773 0.75142
LeftFoot  -8.18711 -0.035296 3.07934
LeftToes  -7.82198e-011 2.46994e-011 -7.94165e-012
225
root  -45.8007 40.3962 0.97988 -135.295 -84.3262 127.705
RightUpLeg  -19.7296 -9.02628 -7.98032
RightLeg  46.9301 -6.17426 -7.35828
RightFoot  0.950523 -0.485557 4.55878
RightToes  -1.33073e-015 0 -3.6325e-017
Spine  19.6721 -0.198574 -3.87783
Spine1  7.73804 -0.838471 -0.4395
HEad  -0.675667 6.44246 -0.709753
LeftShoulder1  9.0343 -13.061 -47.6023
LeftArm  -12.7906 16.2668 -25.8188
LeftForeArm  45.0659 -44.2615 -7.85899
LeftHand  -0.244104 0.0205437 5.32207
RightShoulder  5.88717 9.52808 39.0848
RightArm  -2.68793 -13.2892 34.5992
RightForeArm  17.3022 8.50831 7.49082
RightHand  -1.59092 4.32709 -19.1211
LeftUpLeg  0.970785 11.3673 -5.46571
LeftLeg  15.1228 9.21584 -0.571327
LeftFoot  -9.22378 -0.00153095 3.04369
LeftToes  -7.82198e-011 2.46994e-011 -7.94165e-012
226
root  -46.9126 40.3572 0.979492 -128.084 -84.441 120.157
RightUpLeg  -19.688 -12.3118 -7.23811
RightLeg  35.3511 -5.99979 -4.90259
RightFoot  1.60584 -0.632423 5.66566
RightToes  -1.33073e-015 0 -3.6325e-017
Spine  19.2076 -0.45786 -5.03451
Spine1  7.16046 -1.46527 0.156972
HEad  -0.458118 6.49415 -0.468187
LeftShoulder1  8.86949 -12.9441 -47.0551
LeftArm  -14.158 14.8421 -25.7972
LeftForeArm  46.9059 -49.9638 -9.80387
LeftHand  -0.244104 0.0205437 5.32207
RightShoulder  5.78981 9.51231 38.4217
RightArm  -1.50455 -17.2319 34.1245
RightForeArm  16.0745 10.0156 7.47777
RightHand  -1.51914 4.12038 -18.6617
LeftUpLeg  3.57277 8.5623 -5.51901
LeftLeg  14.4481 11.3155 -1.46894
LeftFoot  -10.9202 0.0560493 2.66915
LeftToes  -7.82198e-011 2.46994e-011 -7.94165e-012
227
root  -48.0912 40.2953 0.944828 -120.242 -84.4263 112.13
RightUpLeg  -18.6667 -16.0075 -6.28454
RightLeg  22.0685 -4.07475 -1.87752
RightFoot  3.41649 -0.772231 6.12954
RightToes  -1.33073e-015 0 -3.6325e-017
Spine  18.3934 -0.695011 -6.40211
Spine1  6.70533 -2.16384 1.35046
HEad  -0.219725 6.74066 -0.49274
LeftShoulder1  8.76033 -12.8379 -46.7717
LeftArm  -15.6681 14.1994 -25.5384
LeftForeArm  48.9338 -55.4213 -12.1689
LeftHand  -0.244104 0.0205437 5.32207
RightShoulder  5.69231 9.55391 37.5658
RightArm  -0.42525 -20.7118 33.847
RightForeArm  13.8846 11.2396 7.44064
RightHand  -1.50077 4.10042 -18.478
LeftUpLeg  6.24562 6.77916 -5.72379
LeftLeg  13.4304 12.4172 -2.23073
LeftFoot  -12.1956 0.0932233 2.59321
LeftToes  -7.82198e-011 2.46994e-011 -7.94165e-012
228
root  -49.3339 40.1978 0.877383 -112.027 -84.3589 103.713
RightUpLeg  -16.4831 -15.9799 -6.68969
RightLeg  9.14 -4.68466 1.46896
RightFoot  4.65353 -0.973077 7.15305
RightToes  -1.33073e-015 0 -3.6325e-017
Spine  17.4336 -0.93347 -7.65479
Spine1  6.36097 -2.83995 2.64283
HEad  0.353704 6.96605 -0.613761
LeftShoulder1  8.7575 -12.8354 -46.7632
LeftArm  -17.0947 14.3898 -25.0891
LeftForeArm  51.0243 -60.1514 -14.8137
LeftHand  -0.244104 0.0205437 5.32207
RightShoulder  5.54518 9.45551 36.7872
RightArm  0.0181953 -23.5882 33.7403
RightForeArm  12.8052 12.0858 7.28101
RightHand  -1.42357 3.80779 -18.0889
LeftUpLeg  8.93968 6.07643 -5.79136
LeftLeg  12.6186 12.3227 -2.76923
LeftFoot  -13.556 0.130575 2.57581
LeftToes  -7.82198e-011 2.46994e-011 -7.94165e-012
229
root  -50.6424 40.0229 0.77997 -106.063 -84.3553 97.5156
RightUpLeg  -13.7348 -9.50085 -8.82201
RightLeg  -0.356481 -11.7438 4.90426
RightFoot  3.94314 -1.09671 8.36412
RightToes  -1.33073e-015 0 -3.6325e-017
Spine  16.355 -1.1378 -8.31277
Spine1  6.13894 -3.27719 3.52085
HEad  1.19936 6.98048 -0.745427
LeftShoulder1  8.78868 -12.891 -46.7712
LeftArm  -18.0058 14.7365 -24.7712
LeftForeArm  52.423 -62.933 -16.7951
LeftHand  -0.244104 0.0205437 5.32207
RightShoulder  5.33288 9.16574 36.1074
RightArm  -0.432576 -25.7979 33.8586
RightForeArm  12.9944 12.5411 7.03115
RightHand  -1.31747 3.4122 -17.5029
LeftUpLeg  11.3519 6.46637 -5.47223
LeftLeg  12.8163 11.0875 -2.77548
LeftFoot  -15.623 0.161923 1.85689
LeftToes  -7.82198e-011 2.46994e-011 -7.94165e-012
230
root  -51.9664 39.8289 0.665459 -104.122 -84.6769 95.4819
RightUpLeg  -12.8065 -9.2609 -7.81882
RightLeg  -2.90756 -12.8409 5.61582
RightFoot  2.67201 -0.975102 8.03696
RightToes  -1.33073e-015 0 -3.6325e-017
Spine  15.1718 -1.29481 -8.05421
Spine1  6.15606 -3.49184 4.19824
HEad  1.76207 6.95806 -1.05728
LeftShoulder1  8.68142 -12.7778 -46.5136
LeftArm  -18.2945 14.883 -24.9801
LeftForeArm  52.6071 -63.4479 -17.2443
LeftHand  -0.244104 0.0205437 5.32207
RightShoulder  5.03491 8.73899 35.1601
RightArm  -1.623 -27.4373 34.5112
RightForeArm  13.2192 12.8701 6.73448
RightHand  -1.23559 3.13783 -16.9514
LeftUpLeg  13.3823 7.91814 -4.5805
LeftLeg  13.65 9.13333 -2.13954
LeftFoot  -17.5332 0.154693 0.893788
LeftToes  -7.82198e-011 2.46994e-011 -7.94165e-012
231
root  -53.2828 39.6783 0.541911 -104.012 -85.3926 95.3372
RightUpLeg  -12.9809 -8.81599 -6.41325
RightLeg  -0.238983 -14.2193 5.28767
RightFoot  4.19218 -0.589997 4.66073
RightToes  -1.33073e-015 0 -3.6325e-017
Spine  14.1513 -1.50568 -6.95026
Spine1  6.36263 -3.67175 4.76412
HEad  1.67983 7.15341 -1.60911
LeftShoulder1  8.48102 -12.5034 -46.2111
LeftArm  -18.185 15.2536 -25.4466
LeftForeArm  51.8755 -62.4544 -16.4793
LeftHand  -0.244104 0.0205437 5.32207
RightShoulder  4.73404 8.29391 34.1778
RightArm  -2.85124 -28.6646 35.4223
RightForeArm  12.1926 13.6281 6.38024
RightHand  -1.16146 2.82947 -16.5345
LeftUpLeg  15.1109 10.6222 -2.95334
LeftLeg  15.0057 6.29124 -0.878721
LeftFoot  -18.6911 0.125733 0.217039
LeftToes  -7.82198e-011 2.46994e-011 -7.94165e-012
232
root  -54.6173 39.5695 0.425315 -105.561 -86.4905 96.5681
RightUpLeg  -13.5851 -9.17937 -4.76613
RightLeg  4.55951 -13.6236 4.37583
RightFoot  8.29785 0.198577 -0.789565
RightToes  -1.33073e-015 0 -3.6325e-017
Spine  13.7046 -1.84732 -4.91843
Spine1  6.32376 -3.7831 4.89052
HEad  1.34523 7.49558 -2.26438
LeftShoulder1  8.44505 -12.3487 -46.4695
LeftArm  -17.8588 16.2408 -25.5191
LeftForeArm  50.7687 -60.3316 -14.979
LeftHand  -0.244104 0.0205437 5.32207
RightShoulder  4.53331 7.93892 33.6732
RightArm  -3.65399 -29.485 35.9364
RightForeArm  10.0273 14.83 6.01114
RightHand  -1.10446 2.5071 -16.3609
LeftUpLeg  16.4972 13.366 -0.674311
LeftLeg  17.6415 3.1226 0.61839
LeftFoot  -19.4462 -0.00525908 -1.65563
LeftToes  -7.82198e-011 2.46994e-011 -7.94165e-012
233
root  -55.9342 39.5012 0.322379 -122.677 -87.8122 113.305
RightUpLeg  -14.4941 -11.9612 -2.3481
RightLeg  9.87941 -9.60874 3.27068
RightFoot  10.5797 1.1261 -5.5007
RightToes  -1.33073e-015 0 -3.6325e-017
Spine  13.728 -2.20902 -1.99728
Spine1  5.8296 -3.65849 4.63645
HEad  1.23463 7.77604 -2.85074
LeftShoulder1  8.62217 -12.3862 -47.3518
LeftArm  -17.2404 17.473 -25.2764
LeftForeArm  49.4151 -56.3762 -12.6572
LeftHand  -0.244104 0.0205437 5.32207
RightShoulder  4.43884 7.71029 33.637
RightArm  -4.33414 -29.5412 35.8637
RightForeArm  8.21217 15.6269 5.77589
RightHand  -1.13085 2.5909 -16.5699
LeftUpLeg  16.2939 13.1399 1.39451
LeftLeg  22.9223 2.62557 1.65866
LeftFoot  -18.8482 -0.2764 -6.10406
LeftToes  -7.82198e-011 2.46994e-011 -7.94165e-012
234
root  -57.1578 39.4649 0.203551 -173.339 -88.5231 164.128
RightUpLeg  -15.4846 -15.6922 0.539715
RightLeg  14.5472 -5.25563 2.43124
RightFoot  8.90055 1.46547 -7.8486
RightToes  -1.33073e-015 0 -3.6325e-017
Spine  13.6485 -2.47195 1.05422
Spine1  5.20664 -3.3893 4.63387
HEad  1.29392 7.96423 -3.19878
LeftShoulder1  8.76588 -12.3966 -48.1216
LeftArm  -16.0555 18.224 -25.5539
LeftForeArm  47.3764 -49.9356 -9.78285
LeftHand  -0.244104 0.0205437 5.32207
RightShoulder  4.37942 7.5609 33.6337
RightArm  -5.35881 -28.4728 35.7309
RightForeArm  7.68036 15.4392 5.74798
RightHand  -1.26963 3.28563 -17.117
LeftUpLeg  12.8273 11.9342 3.32743
LeftLeg  32.1834 3.80432 2.96771
LeftFoot  -14.1266 -0.16296 -10.7071
LeftToes  -7.82198e-011 2.46994e-011 -7.94165e-012
235
root  -58.2501 39.4571 0.0512389 136.272 -87.8702 -144.735
RightUpLeg  -15.8581 -17.522 2.56443
RightLeg  17.4293 -3.82739 2.2713
RightFoot  5.69316 1.26799 -8.17053
RightToes  -1.33073e-015 0 -3.6325e-017
Spine  13.3749 -2.63131 3.52156
Spine1  4.53466 -3.1659 4.96194
HEad  1.21524 7.93511 -3.0719
LeftShoulder1  8.78853 -12.4349 -48.1314
LeftArm  -13.9246 18.4136 -26.6657
LeftForeArm  43.9087 -41.6549 -7.12006
LeftHand  -0.244104 0.0205437 5.32207
RightShoulder  4.36805 7.54109 33.6013
RightArm  -6.65582 -26.7377 35.9545
RightForeArm  7.64862 14.8906 5.76868
RightHand  -1.46669 4.26182 -17.7812
LeftUpLeg  6.32107 11.1647 4.96099
LeftLeg  43.6524 4.97053 5.47027
LeftFoot  -4.26247 0.67089 -11.1241
LeftToes  -7.82198e-011 2.46994e-011 -7.94165e-012
236
root  -59.1959 39.4266 -0.0884236 110.291 -86.9736 -118.052
RightUpLeg  -15.6248 -17.1279 3.44861
RightLeg  19.2043 -5.02396 2.67903
RightFoot  3.28153 1.03414 -7.86934
RightToes  -1.33073e-015 0 -3.6325e-017
Spine  13.6076 -2.86407 6.01451
Spine1  3.46694 -2.8881 5.01212
HEad  1.06047 7.46296 -2.41173
LeftShoulder1  8.91858 -12.8186 -47.6893
LeftArm  -10.7055 18.6092 -27.8711
LeftForeArm  39.3251 -33.2586 -5.1169
LeftHand  -0.244104 0.0205437 5.32207
RightShoulder  4.50443 7.8043 33.886
RightArm  -7.79587 -25.1979 36.1752
RightForeArm  7.24953 14.9284 5.65525
RightHand  -1.62737 5.03254 -18.2721
LeftUpLeg  -1.07527 9.93546 6.05221
LeftLeg  53.9773 4.91708 7.65188
LeftFoot  4.73293 1.00136 -7.2491
LeftToes  -7.82198e-011 2.46994e-011 -7.94165e-012
237
root  -60.0843 39.5115 -0.193802 102.854 -86.3324 -110.399
RightUpLeg  -14.4537 -15.8335 3.33278
RightLeg  19.7884 -6.5992 3.24382
RightFoot  1.94471 0.907222 -7.65803
RightToes  -1.33073e-015 0 -3.6325e-017
Spine  14.1657 -2.85596 7.79869
Spine1  2.82755 -2.49922 4.88227
HEad  0.285195 7.03325 -2.02615
LeftShoulder1  9.17347 -13.1671 -48.0332
LeftArm  -7.14674 18.4708 -28.2357
LeftForeArm  35.4091 -26.4152 -3.78615
LeftHand  -0.244104 0.0205437 5.32207
RightShoulder  4.61013 8.03129 34.0177
RightArm  -8.6869 -23.0324 36.1415
RightForeArm  7.23513 15.4187 5.42586
RightHand  -1.6871 5.31634 -18.4383
LeftUpLeg  -6.90093 8.83187 6.2297
LeftLeg  60.3515 3.90814 7.94824
LeftFoot  6.82979 0.577578 -3.78075
LeftToes  -7.82198e-011 2.46994e-011 -7.94165e-012
